<?xml version="1.0" encoding="utf-8"?>
<!-- Generator: Adobe Illustrator 16.0.0, SVG Export Plug-In . SVG Version: 6.00 Build 0)  -->
<!DOCTYPE svg PUBLIC "-//W3C//DTD SVG 1.1 Tiny//EN" "http://www.w3.org/Graphics/SVG/1.1/DTD/svg11-tiny.dtd">
<svg version="1.1" baseProfile="tiny" id="Layer_1" xmlns="http://www.w3.org/2000/svg" xmlns:xlink="http://www.w3.org/1999/xlink"
	 x="0px" y="0px" width="24px" height="24px" viewBox="0 0 24 24" xml:space="preserve">
<path d="M18.746,11.325h-1.35c0,2.977-2.421,5.396-5.396,5.396s-5.396-2.42-5.396-5.396h-1.35c0,3.492,2.668,6.373,6.071,6.711
	v2.732H7.952v1.35h8.095v-1.35h-3.372v-2.732C16.078,17.698,18.746,14.817,18.746,11.325z"/>
<g>
	<path d="M15.977,5.238C15.648,3.334,13.999,1.882,12,1.882S8.351,3.334,8.022,5.238H15.977z"/>
	<path d="M7.952,6.588v4.737c0,2.234,1.813,4.049,4.048,4.049s4.047-1.814,4.047-4.049V6.588H7.952z"/>
</g>
</svg>
