<?xml version="1.0" standalone="no"?>
<!DOCTYPE svg PUBLIC "-//W3C//DTD SVG 20010904//EN"
 "http://www.w3.org/TR/2001/REC-SVG-20010904/DTD/svg10.dtd">
<svg version="1.0" xmlns="http://www.w3.org/2000/svg"
 width="1000.000000pt" height="1000.000000pt" viewBox="0 0 1000.000000 1000.000000"
 preserveAspectRatio="xMidYMid meet">
<metadata>
Created by potrace 1.11, written by Peter Selinger 2001-2013
</metadata>
<g transform="translate(0.000000,1000.000000) scale(0.100000,-0.100000)"
fill="#000000" stroke="none">
<path d="M8143 9968 c-56 -173 -407 -1175 -414 -1183 -13 -13 -843 -245 -847
-236 -1 4 94 286 212 626 118 341 213 621 211 623 -5 5 -1049 -288 -1057 -296
-4 -4 -104 -288 -223 -631 -118 -344 -217 -626 -218 -627 -5 -5 -830 -234
-842 -234 -10 0 142 454 380 1132 25 72 39 125 32 123 -7 -3 -245 -70 -531
-149 -285 -80 -520 -147 -522 -149 -2 -2 -102 -287 -222 -633 l-218 -629 -423
-118 c-233 -65 -425 -116 -427 -114 -2 2 93 284 212 626 118 343 214 624 212
626 -6 6 -1043 -287 -1055 -298 -6 -7 -107 -289 -224 -627 -116 -338 -216
-619 -221 -625 -12 -14 -842 -245 -846 -235 -1 4 94 286 211 626 118 341 213
620 212 622 -2 2 -88 -20 -192 -48 -255 -71 -334 -109 -438 -214 -135 -136
-190 -272 -188 -461 1 -104 4 -123 71 -355 38 -135 65 -246 61 -248 -5 -2 -9
-11 -9 -20 0 -36 96 -353 105 -350 7 2 12 -1000 15 -2967 5 -2798 6 -2973 23
-3030 63 -215 217 -379 424 -452 l78 -28 3635 0 3635 0 70 23 c228 76 400 270
440 499 12 65 14 562 15 3066 l0 2987 -611 0 c-485 0 -609 -3 -603 -12 4 -7
178 -259 386 -560 208 -300 378 -549 378 -552 0 -3 -199 -6 -442 -6 l-443 1
-389 564 -390 565 -554 0 c-442 0 -552 -3 -545 -12 32 -41 755 -1091 759
-1103 6 -13 -46 -15 -436 -13 l-443 3 -389 563 -389 562 -550 0 c-302 0 -549
-3 -549 -6 0 -3 170 -252 378 -552 208 -301 381 -553 386 -559 6 -10 -84 -13
-437 -13 l-444 0 -389 564 -389 565 -552 0 c-304 1 -553 -1 -553 -3 0 -2 173
-254 385 -560 212 -306 385 -559 385 -561 0 -3 -199 -5 -442 -5 l-443 1 -370
535 c-203 294 -371 540 -373 547 -2 9 1159 337 3874 1095 2132 594 3878 1083
3880 1085 9 8 -239 868 -266 922 -82 168 -245 296 -433 340 -96 23 -112 21
-124 -17z m-3016 -5088 c4 0 2 4 -5 9 -7 4 24 7 72 7 46 -1 82 -4 80 -7 -2 -4
8 -6 21 -6 14 0 25 4 25 9 0 6 7 5 15 -2 10 -9 15 -9 15 -1 0 6 5 11 11 11 5
0 7 -5 3 -12 -5 -7 -2 -9 7 -6 8 3 23 2 34 -2 11 -4 26 -3 33 2 8 7 12 7 12
-1 0 -6 5 -11 11 -11 5 0 7 5 4 10 -3 6 1 10 10 10 9 0 13 -5 9 -11 -4 -8 3
-9 26 -4 26 6 31 4 25 -6 -6 -11 -5 -12 6 -1 16 14 33 16 24 2 -3 -5 1 -10 10
-10 9 0 13 4 10 10 -3 6 1 7 9 4 9 -3 16 -11 16 -16 0 -6 7 -5 15 2 11 10 19
10 27 2 6 -6 17 -8 24 -5 7 3 21 -3 31 -12 11 -12 18 -14 21 -6 5 14 42 15 42
0 0 -5 5 -7 10 -4 14 9 80 -17 73 -28 -3 -5 4 -4 15 2 27 14 33 14 29 -1 -1
-7 4 -12 12 -10 7 1 20 -3 29 -10 12 -10 14 -10 8 0 -9 15 -7 15 32 1 18 -6
29 -15 26 -20 -5 -9 9 -13 35 -9 8 1 17 -4 22 -11 4 -7 18 -13 31 -15 12 -1
26 -3 30 -3 3 -1 20 -12 36 -26 16 -13 33 -21 37 -17 5 4 5 2 2 -4 -4 -7 0
-17 8 -24 13 -11 14 -10 9 6 -4 14 -1 13 15 -6 11 -14 21 -21 21 -16 0 6 7 1
16 -10 8 -10 12 -12 8 -4 -6 11 -2 10 13 -2 11 -10 26 -18 34 -18 12 0 11 -2
-1 -10 -13 -9 -12 -11 6 -9 3 0 11 -7 18 -17 7 -9 18 -14 25 -10 7 5 10 2 9
-6 -2 -7 3 -12 10 -11 6 2 12 -4 12 -12 0 -8 13 -23 30 -34 16 -10 27 -21 23
-24 -6 -6 10 -11 28 -9 4 1 6 -6 5 -16 0 -9 9 -21 22 -27 13 -6 20 -16 17 -23
-3 -8 3 -16 15 -19 11 -3 17 -9 14 -14 -3 -5 -1 -9 3 -9 5 0 18 -7 29 -16 19
-15 19 -16 -1 -10 -15 5 -13 0 10 -21 17 -16 24 -23 16 -18 -10 7 -9 2 3 -17
17 -25 36 -42 21 -18 -3 5 0 7 8 4 9 -3 13 -13 10 -25 -3 -11 1 -21 10 -25 9
-3 13 -12 10 -20 -4 -10 0 -12 13 -7 11 4 15 3 10 -5 -3 -6 -2 -13 4 -17 6 -4
8 -10 5 -15 -3 -4 3 -11 12 -14 14 -6 15 -9 4 -15 -9 -6 -5 -14 17 -30 22 -15
29 -27 25 -41 -3 -12 0 -20 6 -20 7 0 10 -4 6 -9 -3 -5 -1 -12 5 -16 6 -4 8
-11 5 -16 -4 -5 2 -9 12 -9 11 0 14 -3 7 -8 -7 -5 -7 -14 1 -29 7 -13 14 -21
17 -18 3 3 4 -6 3 -20 -2 -14 1 -25 6 -25 5 0 9 -7 9 -16 0 -9 10 -33 22 -52
12 -20 16 -32 10 -28 -17 10 -15 -3 3 -21 8 -8 12 -19 9 -24 -3 -6 3 -13 15
-16 12 -3 21 -9 21 -12 0 -4 7 -8 15 -8 8 0 15 4 15 9 0 5 7 3 15 -6 9 -8 22
-13 30 -9 9 3 22 0 30 -7 8 -7 15 -9 15 -4 0 5 5 1 11 -10 9 -15 13 -16 20 -5
8 12 11 12 19 -1 5 -8 10 -11 10 -6 0 6 7 1 16 -10 8 -10 13 -13 9 -7 -4 9 -1
11 9 7 9 -3 13 -11 9 -18 -5 -8 -3 -8 8 0 11 9 21 7 42 -6 20 -13 25 -20 15
-24 -7 -3 -3 -4 10 -2 12 2 22 0 22 -6 0 -5 5 -6 10 -3 6 3 10 1 10 -4 0 -6 7
-11 15 -11 9 0 28 -12 42 -27 14 -16 20 -20 14 -11 -10 14 -9 16 9 11 11 -3
26 -15 32 -27 15 -28 40 -46 56 -41 7 3 10 0 7 -5 -3 -5 5 -12 19 -16 13 -3
27 -15 29 -26 4 -14 11 -19 21 -15 10 4 22 -3 32 -18 9 -14 21 -22 27 -18 6 4
8 0 4 -10 -4 -11 -2 -14 7 -11 8 3 17 0 22 -7 4 -8 3 -10 -4 -5 -8 5 -10 2 -6
-8 3 -9 10 -13 15 -10 5 3 9 0 9 -6 0 -6 4 -8 10 -5 6 3 7 -1 4 -9 -4 -10 1
-19 14 -23 12 -5 22 -12 24 -18 2 -5 7 -9 11 -7 5 1 6 -1 3 -6 -2 -4 11 -25
30 -46 19 -21 33 -45 30 -52 -5 -13 6 -19 27 -15 5 1 6 -3 3 -8 -3 -5 2 -12
11 -15 15 -6 15 -8 3 -16 -10 -6 -11 -10 -3 -10 7 0 10 -7 7 -15 -5 -11 -2
-13 12 -8 14 5 16 3 11 -11 -4 -10 -3 -15 3 -11 6 4 9 -3 6 -17 -2 -15 5 -31
20 -45 16 -14 25 -38 30 -72 4 -28 10 -54 15 -57 5 -3 6 3 3 13 -5 14 -4 15 4
4 7 -10 7 -21 1 -33 -7 -13 -6 -18 3 -16 7 2 12 -3 10 -10 -1 -7 3 -22 9 -34
8 -15 8 -18 0 -14 -6 4 -11 2 -11 -3 0 -6 6 -11 13 -11 8 0 7 -4 -3 -10 -11
-7 -11 -10 -2 -10 7 0 10 -4 7 -10 -3 -5 -1 -10 5 -10 6 0 8 -12 5 -31 -4 -23
-2 -29 7 -23 8 5 7 1 -2 -11 -9 -11 -10 -16 -2 -11 15 9 16 -8 1 -36 -7 -14
-8 -23 -1 -27 6 -3 9 -34 9 -68 -1 -33 -5 -59 -9 -56 -13 7 -9 -12 5 -26 10
-11 9 -12 -3 -6 -12 6 -12 5 -3 -5 6 -7 9 -19 6 -27 -3 -8 5 -26 18 -41 18
-20 19 -23 4 -12 -19 14 -19 14 -6 -3 8 -10 20 -16 28 -13 8 3 12 2 9 -3 -3
-5 1 -12 10 -15 9 -3 12 -11 8 -18 -5 -8 -2 -9 10 -5 10 4 15 3 11 -3 -3 -6
-1 -10 4 -10 6 0 11 -6 11 -14 0 -8 9 -22 21 -30 12 -8 18 -19 15 -25 -5 -7
-1 -8 9 -5 11 5 15 2 13 -9 -2 -8 10 -27 25 -41 15 -14 26 -30 23 -35 -3 -5 1
-11 9 -15 8 -3 15 -12 15 -21 0 -8 4 -15 8 -15 4 0 8 -10 9 -22 1 -12 9 -26
18 -30 8 -5 15 -22 15 -39 0 -17 4 -28 10 -24 6 3 7 -1 4 -9 -4 -9 -1 -16 6
-16 7 0 10 -7 6 -16 -4 -10 1 -25 11 -36 15 -17 15 -20 3 -28 -14 -9 -7 -14
13 -11 5 1 6 -3 2 -9 -4 -6 -1 -18 7 -27 11 -14 11 -16 -1 -8 -10 6 -12 4 -6
-6 9 -14 15 -41 16 -72 0 -9 5 -15 10 -11 12 7 7 -19 -6 -29 -6 -5 -4 -12 7
-20 11 -9 14 -18 7 -28 -12 -20 -11 -37 2 -19 8 12 10 9 6 -12 -2 -16 0 -28 5
-28 10 0 9 -88 -1 -105 -9 -16 -8 -29 3 -44 9 -12 8 -13 -2 -7 -11 7 -12 4 -3
-12 15 -28 14 -62 -1 -62 -8 0 -9 -3 -3 -8 6 -4 11 -18 13 -32 2 -20 1 -22 -8
-10 -7 11 -8 6 -3 -19 5 -27 3 -32 -7 -26 -9 6 -11 4 -5 -5 11 -18 12 -69 1
-63 -4 3 -5 -5 -1 -17 6 -17 4 -21 -6 -14 -12 6 -12 5 0 -9 10 -13 10 -17 1
-17 -8 0 -10 -8 -6 -24 3 -14 2 -27 -2 -30 -5 -3 -7 -23 -5 -45 2 -25 -1 -41
-8 -41 -6 0 -9 -7 -5 -15 3 -8 1 -15 -5 -15 -6 0 -9 -7 -5 -15 3 -8 0 -15 -7
-15 -8 0 -7 -4 3 -10 13 -9 13 -12 0 -23 -9 -6 -15 -22 -14 -34 1 -12 -3 -20
-7 -17 -9 5 -14 -23 -10 -63 1 -13 -3 -23 -9 -23 -6 0 -8 -4 -5 -10 3 -5 0
-10 -7 -10 -8 0 -14 -8 -14 -17 -1 -10 -4 -27 -8 -38 -6 -16 -6 -17 3 -5 18
26 12 2 -9 -32 -19 -32 -20 -32 -21 -8 -2 24 -2 24 -6 3 -5 -28 -8 -28 -40 -3
-14 11 -21 20 -14 20 6 0 11 7 11 15 0 8 -4 15 -8 15 -5 0 -8 15 -7 32 1 18
-4 42 -11 53 -8 12 -15 30 -17 40 -2 11 -9 31 -14 45 -6 15 -7 27 -1 31 5 3 2
12 -7 19 -9 7 -14 19 -11 27 4 9 1 11 -6 7 -8 -5 -9 0 -5 15 3 13 0 24 -7 27
-7 3 -13 10 -14 17 -4 50 -6 56 -19 45 -11 -8 -12 -7 -7 7 6 14 4 16 -6 10 -8
-5 -11 -4 -6 3 3 6 2 13 -4 17 -5 3 -10 18 -10 33 0 21 -2 24 -10 12 -8 -12
-10 -11 -10 7 0 12 -4 25 -10 28 -6 3 -7 -1 -4 -12 3 -10 -2 -4 -12 12 -9 17
-17 32 -18 35 0 13 -22 27 -27 18 -3 -5 -12 -2 -19 7 -9 11 -9 15 -1 15 7 0 9
5 6 10 -4 6 -11 8 -16 5 -9 -6 -40 18 -39 30 1 21 -1 27 -7 22 -3 -4 -13 -1
-21 6 -13 9 -14 9 -8 -1 4 -6 2 -12 -3 -12 -6 0 -11 6 -11 14 0 7 -8 20 -17
27 -14 12 -16 12 -8 0 6 -11 5 -12 -6 -5 -8 5 -18 9 -24 9 -5 1 -9 6 -8 13 2
7 -2 12 -7 12 -6 0 -10 -6 -11 -12 0 -10 -2 -10 -6 0 -8 19 -30 14 -36 -9 -4
-14 -11 -20 -21 -16 -19 7 -31 -9 -15 -19 8 -4 9 -3 5 4 -4 7 -5 12 -2 12 20
0 9 -23 -27 -56 -23 -21 -31 -27 -18 -12 14 16 20 28 15 28 -5 0 -20 -16 -34
-35 -14 -19 -33 -37 -42 -40 -10 -4 -27 -19 -38 -35 -13 -18 -26 -27 -36 -23
-8 3 -14 2 -13 -3 3 -19 -2 -29 -9 -17 -5 8 -12 7 -27 -4 -20 -16 -20 -16 0
-9 20 6 20 6 1 -9 -15 -11 -23 -12 -33 -3 -11 9 -12 7 -7 -7 5 -13 4 -16 -4
-11 -7 4 -12 3 -12 -3 0 -6 -6 -8 -14 -5 -8 3 -25 0 -38 -7 -13 -7 -26 -12
-30 -11 -5 1 -7 -4 -5 -11 1 -6 -4 -11 -10 -10 -7 2 -13 -2 -13 -9 0 -6 -3 -8
-7 -5 -3 4 -13 1 -21 -6 -13 -9 -14 -9 -8 1 4 7 1 12 -9 12 -9 0 -14 -4 -11
-9 3 -5 -3 -11 -14 -14 -11 -3 -20 -1 -20 3 0 4 -9 6 -20 3 -11 -3 -20 -9 -20
-14 0 -4 -17 -11 -37 -14 -21 -4 -46 -9 -57 -12 -13 -4 -16 -1 -11 8 6 11 5
12 -6 1 -16 -15 -33 -16 -24 -2 8 13 -18 8 -27 -5 -5 -6 -11 -6 -18 1 -8 8
-24 9 -46 4 -20 -5 -49 -4 -65 0 -16 5 -41 7 -55 4 -14 -2 -30 -1 -37 3 -7 4
-23 8 -37 9 -54 2 -57 3 -40 14 9 6 10 10 3 10 -6 0 -15 -5 -18 -11 -5 -6 -12
-4 -20 7 -7 10 -19 15 -29 11 -10 -4 -16 -1 -16 9 0 11 -4 12 -19 4 -15 -7
-23 -6 -34 5 -8 8 -17 11 -21 8 -3 -4 -6 0 -6 8 0 9 -11 16 -27 17 -14 1 -34
9 -43 17 -9 8 -20 12 -25 8 -4 -5 -6 0 -2 9 6 17 -17 33 -33 23 -5 -3 -12 0
-16 6 -4 8 -3 9 4 5 7 -4 12 -2 12 5 0 6 -8 9 -19 6 -13 -3 -18 -1 -15 8 4 9
-4 12 -26 11 -37 -3 -75 -43 -59 -62 7 -8 6 -15 -2 -20 -8 -5 -9 -3 -4 6 6 9
4 11 -4 6 -7 -5 -10 -14 -7 -22 3 -8 0 -13 -7 -11 -7 1 -11 -6 -11 -15 1 -10
-4 -14 -12 -11 -10 4 -12 0 -8 -11 4 -11 1 -16 -10 -16 -16 0 -20 -10 -17 -40
1 -12 0 -12 -7 -2 -10 15 -23 3 -35 -31 -4 -10 -11 -15 -17 -12 -9 5 -15 -15
-11 -38 1 -5 -3 -6 -8 -3 -16 10 -41 -5 -41 -26 0 -10 -4 -16 -10 -13 -5 3
-10 -1 -10 -9 0 -8 -5 -18 -12 -22 -7 -5 -8 -2 -3 7 4 8 -6 -1 -24 -19 -17
-18 -31 -28 -31 -22 0 6 -4 9 -10 5 -5 -3 -6 -13 -3 -23 6 -14 4 -15 -9 -4
-17 14 -35 1 -24 -17 3 -5 -1 -12 -10 -15 -8 -3 -13 -2 -10 3 4 5 -3 7 -15 4
-16 -4 -17 -8 -7 -14 10 -7 9 -9 -5 -9 -10 0 -15 -4 -12 -10 3 -5 1 -10 -4
-10 -6 0 -11 5 -11 11 0 7 -12 -1 -27 -17 -15 -16 -33 -28 -40 -26 -7 2 -13
-3 -13 -9 0 -7 -3 -9 -7 -6 -3 4 -13 1 -21 -6 -13 -9 -14 -9 -8 0 5 9 2 11
-11 6 -33 -12 -63 -35 -57 -44 3 -5 0 -9 -5 -9 -6 0 -11 6 -12 13 0 6 -4 3 -9
-8 -5 -11 -9 -14 -9 -7 -1 6 -6 12 -12 12 -5 0 -8 -4 -5 -9 3 -4 -6 -7 -19 -5
-14 1 -28 -3 -32 -8 -3 -7 -1 -8 5 -4 7 4 12 3 12 -3 0 -6 -15 -7 -37 -4 -31
5 -35 4 -30 -10 5 -14 1 -16 -26 -13 -40 4 -59 -2 -50 -18 3 -6 1 -6 -8 2 -16
14 -33 16 -24 2 3 -5 -1 -10 -10 -10 -10 0 -13 5 -9 13 4 6 -2 3 -14 -7 -12
-11 -22 -16 -22 -12 0 4 -9 2 -20 -4 -14 -8 -26 -8 -40 0 -11 6 -20 7 -20 1 0
-5 -7 -12 -16 -15 -9 -3 -12 -2 -9 5 6 9 -42 3 -54 -7 -2 -2 -11 2 -19 9 -13
9 -14 9 -8 0 4 -8 2 -13 -8 -13 -8 0 -18 4 -21 10 -3 5 -13 10 -21 10 -8 0
-12 -5 -9 -10 4 -6 -5 -10 -19 -10 -14 0 -26 6 -27 13 0 10 -2 10 -6 0 -5 -14
-33 -18 -33 -5 0 4 -14 7 -30 8 -17 1 -30 -2 -30 -7 0 -9 -33 -4 -52 7 -7 4
-8 3 -4 -4 4 -7 1 -12 -7 -12 -8 0 -18 8 -21 17 -5 12 -9 14 -18 5 -16 -16
-61 -15 -76 0 -7 7 -12 8 -12 4 0 -5 -8 -2 -17 5 -13 11 -15 11 -9 1 6 -10 -2
-8 -25 3 -21 12 -34 14 -37 7 -2 -6 -10 -8 -18 -5 -7 3 -12 8 -9 13 2 4 -7 5
-20 2 -17 -3 -25 0 -25 9 0 11 -2 11 -10 -1 -7 -12 -12 -11 -31 5 -12 11 -19
14 -15 7 4 -7 -10 -3 -31 9 -21 12 -50 21 -65 20 -16 -1 -28 3 -28 9 0 5 -7
10 -15 10 -8 0 -15 5 -15 10 0 6 -8 10 -17 10 -15 0 -16 -2 -3 -10 10 -7 11
-10 2 -10 -7 0 -15 6 -18 14 -3 8 -12 12 -20 9 -8 -3 -14 1 -14 10 0 9 -9 14
-27 13 -21 -1 -27 3 -25 16 2 12 -4 16 -24 13 -15 -1 -28 3 -31 11 -3 8 -11
14 -19 14 -8 0 -14 4 -14 8 0 11 -51 37 -80 41 -5 0 -10 10 -10 20 0 15 -6 19
-20 16 -11 -2 -18 0 -15 6 4 5 1 9 -5 9 -6 0 -8 5 -4 12 5 8 2 9 -9 5 -11 -4
-17 -1 -17 8 0 9 -6 12 -17 8 -11 -4 -14 -3 -9 6 9 14 -23 43 -38 34 -5 -4 -6
-1 -2 5 4 7 1 12 -8 12 -9 0 -16 8 -16 18 0 17 -39 59 -50 54 -3 -2 -6 6 -8
18 -2 11 -8 20 -13 20 -6 0 -7 -5 -3 -12 4 -7 3 -8 -5 -4 -7 4 -10 13 -8 19 2
7 -7 20 -19 30 -13 10 -21 24 -17 32 3 9 -1 15 -10 15 -9 0 -19 5 -23 12 -5 7
-3 8 6 3 8 -5 5 5 -6 21 -33 46 -39 58 -26 50 7 -4 12 -3 12 3 0 15 -18 23
-25 11 -4 -6 -11 -8 -16 -5 -5 4 -9 1 -9 -5 0 -6 -4 -8 -10 -5 -5 3 -10 2 -10
-3 0 -5 -11 -14 -25 -20 -14 -6 -24 -17 -23 -24 2 -6 -5 -14 -16 -16 -13 -3
-16 0 -11 9 5 8 4 10 -4 5 -6 -4 -9 -11 -6 -16 3 -4 -2 -13 -10 -20 -12 -10
-15 -10 -16 1 0 10 -2 11 -6 1 -2 -6 -9 -10 -14 -6 -5 3 -8 0 -7 -8 2 -7 -5
-12 -15 -11 -12 0 -16 -4 -13 -12 3 -9 -6 -16 -25 -20 -16 -4 -29 -10 -29 -14
0 -5 -19 -16 -42 -26 -24 -9 -50 -21 -59 -25 -8 -4 -27 -6 -42 -3 -16 3 -27 1
-27 -5 0 -6 -8 -10 -17 -10 -28 1 -47 -6 -59 -21 -6 -8 -18 -12 -26 -8 -9 3
-21 0 -27 -6 -7 -7 -11 -7 -11 -1 0 16 -28 13 -35 -3 -4 -11 -17 -13 -56 -9
-27 3 -48 2 -45 -3 3 -4 -13 -8 -34 -7 -22 0 -40 5 -40 11 0 5 -4 4 -9 -3 -7
-12 -12 -12 -31 0 -16 9 -24 10 -27 2 -5 -14 -43 -6 -43 8 0 5 -4 7 -9 3 -18
-10 -91 -13 -91 -3 0 6 -8 8 -18 6 -10 -3 -24 2 -32 10 -8 9 -15 11 -17 5 -5
-14 -82 4 -105 25 -10 8 -18 12 -18 8 0 -4 -6 -4 -12 1 -7 4 -21 6 -32 4 -10
-1 -15 2 -12 7 4 6 2 13 -4 17 -5 3 -10 0 -10 -7 -1 -8 -8 -4 -19 9 -10 12
-21 19 -25 16 -3 -4 -13 2 -22 13 -8 10 -13 13 -9 7 3 -7 1 -13 -4 -13 -6 0
-11 5 -11 10 0 6 -6 10 -12 10 -7 0 -22 8 -33 17 -17 13 -17 15 -2 9 12 -4 16
-2 11 5 -3 6 -17 9 -30 6 -32 -6 -54 9 -34 24 12 9 11 10 -8 6 -15 -4 -28 2
-41 19 -13 17 -21 20 -24 12 -3 -7 -6 -3 -6 8 -1 23 -39 54 -66 54 -8 0 -19
10 -24 23 -5 13 -17 29 -27 37 -14 12 -16 12 -9 1 6 -10 4 -12 -4 -7 -7 5 -10
14 -7 21 3 8 -1 19 -9 25 -10 8 -14 8 -18 -2 -4 -9 -6 -9 -6 2 -1 8 -11 21
-22 29 -14 8 -18 16 -11 20 7 4 6 12 -4 25 -8 11 -14 17 -14 13 0 -4 -11 3
-25 15 -18 15 -22 25 -14 34 6 8 6 14 0 18 -5 3 -11 0 -14 -6 -3 -7 -10 2 -17
20 -7 17 -16 32 -20 32 -4 0 -6 8 -3 19 3 10 -1 22 -8 26 -8 6 -10 4 -4 -5 5
-9 4 -11 -3 -6 -7 4 -12 16 -12 27 0 10 -5 19 -11 19 -6 0 -9 9 -6 20 4 14 0
20 -11 20 -15 0 -15 2 -2 10 12 7 12 10 1 10 -8 0 -11 6 -7 16 4 10 2 13 -6 8
-8 -5 -9 -2 -5 9 4 10 1 17 -5 17 -6 0 -9 3 -6 6 4 3 0 17 -7 31 -7 14 -11 32
-8 41 4 10 2 13 -5 8 -8 -5 -12 1 -12 16 0 13 -1 33 -1 46 0 12 -4 20 -9 17
-6 -3 -7 1 -4 10 4 8 1 22 -6 30 -10 12 -10 15 1 15 11 0 11 3 -1 11 -12 9
-13 12 -1 16 9 4 10 7 2 12 -14 9 -23 51 -11 51 5 0 6 10 3 22 -9 35 -11 118
-4 118 11 0 7 54 -4 62 -6 5 -5 8 3 8 7 0 10 5 7 10 -3 6 -1 10 4 10 7 0 7 7
-1 20 -9 14 -10 23 -2 28 5 4 11 16 12 27 3 42 15 85 23 85 5 0 9 5 9 11 0 5
-6 7 -13 3 -8 -6 -8 -3 1 9 8 9 11 21 8 26 -4 5 -2 13 4 16 6 4 8 16 4 27 -5
17 -3 20 10 15 10 -4 16 -1 16 7 0 8 -5 16 -11 18 -7 2 0 17 15 35 14 17 26
40 26 52 0 12 5 21 10 21 6 0 10 6 10 14 0 7 6 19 14 25 8 7 12 20 9 31 -3 12
4 24 21 35 14 10 26 24 26 32 0 18 25 44 34 35 4 -3 4 1 1 10 -7 17 23 60 37
52 4 -3 5 3 1 12 -4 12 -3 15 5 10 8 -4 12 -1 12 10 0 10 3 14 7 11 4 -4 13 7
20 24 7 17 17 28 23 24 5 -3 10 -1 10 6 0 7 3 9 7 6 3 -4 17 9 30 28 21 31 38
40 65 36 4 0 4 7 1 16 -4 10 -2 14 4 10 5 -4 19 0 29 8 18 15 18 15 -1 8 -16
-5 -16 -3 5 14 15 13 27 17 31 11 4 -6 11 -3 18 8 6 11 11 13 11 6 0 -7 5 -10
10 -7 6 4 8 11 5 16 -4 5 1 9 9 9 9 0 16 6 16 13 0 7 9 13 20 14 13 1 18 -2
13 -10 -3 -7 3 -4 14 6 11 9 25 17 32 17 7 0 9 5 6 10 -3 6 1 10 10 10 10 0
13 5 9 12 -4 7 -3 8 4 4 21 -13 32 3 20 29 -8 18 -8 28 0 38 6 7 11 22 10 32
-1 11 2 38 6 60 5 22 9 49 11 60 1 11 3 24 4 28 0 5 5 6 10 3 5 -3 12 1 15 10
3 8 2 12 -4 9 -14 -9 -12 2 7 38 9 18 17 34 18 37 1 12 24 44 25 35 0 -5 7 5
15 24 8 18 13 37 10 41 -3 5 5 16 17 24 12 9 19 16 14 16 -4 0 2 9 15 21 13
11 18 17 10 13 -10 -5 -12 -3 -7 5 5 7 14 10 22 7 8 -3 11 0 7 10 -3 7 0 14 5
14 6 0 14 9 17 21 5 13 12 18 22 14 13 -4 14 -3 4 9 -8 10 -9 16 -1 21 5 3 10
1 10 -5 0 -7 5 -6 14 2 10 10 11 15 2 21 -6 5 -2 7 12 4 19 -4 21 -3 12 8 -9
11 -6 16 11 25 14 8 19 8 15 1 -4 -6 -3 -11 3 -11 5 0 15 13 22 29 11 25 16
28 28 18 12 -10 14 -9 9 5 -5 12 0 18 18 22 14 4 22 11 19 16 -3 6 0 10 8 10
8 0 18 7 21 16 3 8 10 13 14 10 5 -3 25 6 44 19 20 13 38 22 41 19 3 -3 4 3 4
13 -2 14 4 17 25 15 19 -2 28 3 33 18 3 11 9 19 13 19 23 -4 42 2 37 11 -4 6
-3 10 2 8 15 -4 73 14 69 21 -3 4 8 6 24 5 21 -1 27 2 23 12 -6 17 1 18 27 4
14 -8 21 -6 28 6 5 8 23 16 40 16 17 1 29 4 27 8 -2 4 7 5 20 2 15 -2 25 0 25
8 0 7 8 9 20 5 11 -3 20 -3 20 2 0 5 21 8 48 7 26 -1 52 3 59 8 7 5 17 7 23 3
5 -3 10 -1 10 4 0 6 5 11 11 11 5 0 8 -3 6 -7 -3 -5 10 -9 29 -10 19 -1 34 3
34 8 0 6 14 8 30 5 17 -2 30 0 30 4 0 5 14 5 30 0 21 -6 30 -5 31 3 0 9 2 8 6
0 2 -7 12 -13 21 -13 15 0 15 2 2 10 -25 16 44 12 76 -5 24 -12 32 -12 49 -1
11 7 20 20 20 27 1 21 15 40 26 34 8 -6 13 8 10 28 0 4 4 7 10 7 13 0 39 25
39 38 0 5 7 15 15 22 13 11 15 10 9 -6 -6 -19 -4 -18 46 43 6 7 11 16 13 20 1
5 6 7 10 5 5 -1 11 7 14 18 3 11 10 20 15 20 5 0 20 12 33 26 14 16 25 21 25
14 0 -9 5 -7 14 5 8 11 12 23 10 26 -2 4 10 12 26 19 17 7 30 16 30 21 0 5 3
8 8 8 20 -3 30 3 35 20 3 13 19 24 45 31 23 6 44 16 48 22 5 7 2 8 -7 3 -11
-6 -11 -5 -3 4 6 7 20 14 30 16 11 2 20 4 22 4 1 1 4 1 7 1 3 0 15 9 27 20 12
11 28 18 36 15 7 -2 10 0 7 5 -6 10 -3 11 33 14 9 1 23 5 30 9 6 5 17 5 22 2
6 -3 10 -3 10 2 0 13 49 32 70 28 11 -2 19 1 17 8 -1 7 9 12 26 12 15 -1 27 2
27 6 0 4 7 10 16 13 9 4 13 2 8 -5 -3 -6 5 -4 19 5 16 11 35 15 53 11 22 -5
25 -4 14 4 -19 13 -14 14 27 2 22 -6 32 -6 30 1 -2 9 30 17 71 18 66 1 92 4
92 13 0 4 9 3 19 -3 11 -5 23 -10 28 -10z m-2787 -1705 c-7 -9 -15 -13 -19
-10 -3 3 1 10 9 15 21 14 24 12 10 -5z m1520 -2245 c0 -5 -2 -10 -4 -10 -3 0
-8 5 -11 10 -3 6 -1 10 4 10 6 0 11 -4 11 -10z m565 -358 c-3 -3 -11 0 -18 7
-9 10 -8 11 6 5 10 -3 15 -9 12 -12z"/>
<path d="M6100 4722 c0 -5 16 -16 36 -25 19 -10 33 -13 29 -7 -9 14 -65 42
-65 32z"/>
<path d="M5753 4313 c-24 -9 -13 -20 17 -15 16 2 27 8 24 13 -6 10 -21 11 -41
2z"/>
<path d="M6473 3103 c-7 -2 -12 -14 -12 -26 1 -17 2 -18 6 -4 2 9 13 17 24 17
10 0 19 5 19 10 0 10 -16 12 -37 3z"/>
<path d="M5016 3075 c-3 -8 -13 -15 -21 -15 -9 0 -13 5 -10 10 3 6 1 10 -4 10
-6 0 -11 -5 -11 -12 0 -9 -3 -9 -12 0 -14 14 -32 16 -24 4 3 -5 -8 -9 -24 -10
-17 0 -30 4 -30 9 0 5 -10 3 -22 -5 -13 -7 -40 -12 -60 -10 -21 2 -38 -1 -38
-6 0 -12 -22 -9 -32 5 -5 6 -8 5 -8 -4 0 -11 -3 -11 -17 0 -11 10 -14 10 -9 2
4 -7 3 -13 -3 -13 -5 0 -18 -3 -28 -6 -15 -5 -15 -4 -3 5 21 15 9 14 -35 -5
-20 -8 -34 -10 -30 -5 9 15 -18 14 -34 -1 -11 -11 -12 -10 -6 1 7 11 3 11 -14
-1 -14 -10 -35 -14 -53 -11 -17 2 -28 1 -25 -4 3 -4 -14 -9 -36 -11 -54 -4
-70 -6 -82 -13 -5 -4 -23 -7 -40 -7 -16 0 -60 -12 -97 -26 -44 -17 -69 -22
-74 -15 -4 7 -12 5 -23 -5 -14 -13 -20 -13 -31 -3 -8 7 -10 8 -7 1 10 -17 -22
-25 -131 -33 -7 -1 -11 -5 -7 -10 3 -5 1 -12 -5 -16 -5 -3 -10 0 -10 7 -1 8
-6 6 -15 -5 -9 -13 -20 -17 -34 -12 -14 4 -23 1 -27 -8 -5 -15 -52 -30 -89
-30 -11 1 -24 -5 -28 -13 -4 -8 -13 -14 -18 -14 -6 0 -7 5 -4 10 3 6 1 10 -4
10 -6 0 -11 -4 -11 -10 0 -5 -13 -16 -29 -24 -22 -12 -31 -12 -41 -3 -10 9
-11 9 -6 0 8 -15 -21 -32 -45 -26 -11 3 -19 1 -19 -4 0 -5 -10 -9 -22 -10 -11
-1 -25 -7 -29 -14 -4 -7 -21 -12 -39 -12 -17 0 -26 -3 -20 -7 8 -5 7 -9 -3
-13 -8 -3 -20 0 -27 6 -10 10 -12 8 -6 -7 5 -15 2 -18 -19 -13 -19 3 -25 1
-21 -8 2 -7 -4 -15 -15 -18 -12 -3 -17 -1 -12 6 4 7 0 8 -11 4 -10 -4 -22 -7
-28 -7 -6 0 -7 -7 -4 -16 5 -14 4 -15 -9 -4 -13 11 -14 10 -9 -5 5 -13 4 -16
-4 -11 -6 4 -22 1 -34 -6 -25 -13 -30 -15 -53 -17 -8 0 -14 -7 -13 -13 2 -7
-4 -12 -13 -10 -9 1 -20 -5 -23 -14 -4 -9 -13 -14 -21 -10 -8 3 -15 1 -15 -5
0 -6 -6 -9 -13 -6 -8 3 -20 -3 -27 -14 -11 -15 -17 -16 -29 -6 -9 6 -13 7 -9
3 10 -12 -10 -36 -29 -36 -8 0 -21 -7 -29 -15 -8 -8 -22 -11 -31 -8 -10 4 -14
2 -10 -4 8 -12 -20 -27 -42 -24 -8 2 -20 -4 -26 -12 -6 -8 -20 -17 -30 -19
-11 -1 -30 -13 -42 -26 -13 -13 -23 -19 -23 -15 0 4 -5 0 -11 -9 -5 -10 -21
-18 -35 -18 -14 0 -23 -4 -19 -9 7 -13 -32 -34 -51 -27 -7 3 -20 -4 -28 -16
-8 -11 -19 -17 -25 -14 -7 4 -8 1 -5 -8 3 -9 1 -17 -5 -17 -6 -1 -15 -3 -21
-4 -5 -1 -17 -3 -26 -4 -8 0 -12 -5 -9 -11 3 -5 -1 -10 -9 -10 -9 0 -16 -4
-16 -9 0 -5 -14 -16 -30 -25 -17 -8 -27 -10 -24 -4 4 5 -5 2 -20 -7 -14 -9
-23 -21 -20 -26 3 -5 -1 -6 -9 -3 -8 3 -18 0 -23 -7 -4 -8 -3 -10 4 -5 7 4 12
2 12 -3 0 -6 -6 -12 -12 -12 -7 -1 -17 -2 -23 -4 -5 -1 -15 -3 -22 -3 -7 -1
-10 -8 -7 -16 3 -7 -2 -16 -11 -20 -10 -4 -14 -2 -9 6 4 7 3 8 -4 4 -7 -4 -12
-15 -13 -24 0 -11 -3 -12 -6 -4 -2 6 -9 12 -14 12 -4 0 -6 -7 -3 -15 5 -11 -1
-15 -22 -15 -19 0 -25 -3 -16 -9 10 -6 10 -10 -3 -21 -10 -8 -15 -9 -15 -1 0
6 -9 2 -20 -9 -11 -11 -20 -24 -20 -30 0 -5 -7 -7 -16 -3 -10 4 -17 -2 -21
-16 -5 -18 -8 -19 -21 -9 -13 11 -15 10 -9 -5 4 -10 3 -16 -3 -12 -15 9 -49
-17 -42 -34 4 -10 1 -13 -11 -8 -15 6 -29 -6 -33 -25 -1 -5 -2 -11 -3 -15 -1
-5 -6 -1 -12 7 -9 12 -10 11 -6 -7 3 -13 0 -26 -5 -30 -7 -4 -5 -10 5 -18 10
-7 18 -24 19 -38 1 -14 5 -25 8 -25 18 1 21 -4 10 -17 -9 -11 -10 -15 -1 -15
18 0 41 -26 33 -36 -4 -5 1 -2 11 5 15 12 17 12 11 -3 -5 -12 1 -10 21 8 15
14 24 30 20 35 -3 6 0 8 8 5 8 -3 18 0 23 7 5 8 3 10 -7 4 -8 -5 -5 1 5 13 20
23 32 29 20 11 -4 -7 -2 -10 5 -8 7 3 12 8 11 13 -1 5 11 17 27 27 15 10 24
19 20 19 -21 0 18 41 58 60 42 20 63 39 29 26 -8 -3 -12 -2 -9 4 3 6 14 10 23
10 10 0 25 9 35 20 10 12 22 18 28 15 5 -4 8 -3 7 2 -4 13 39 56 49 50 5 -3
22 5 38 19 15 13 25 24 20 24 -4 0 3 9 16 19 13 11 26 17 28 15 3 -2 -4 -11
-15 -19 -11 -9 -14 -14 -6 -15 7 0 21 13 30 30 16 28 51 54 36 27 -3 -6 6 2
21 18 14 17 24 24 20 17 -10 -19 47 8 64 31 7 10 20 16 27 13 8 -3 17 1 20 9
4 8 11 12 17 8 5 -3 7 -1 4 4 -9 14 19 37 33 28 5 -3 13 1 16 10 4 9 13 14 21
11 8 -3 12 -2 10 2 -3 4 7 16 21 26 14 11 22 14 18 8 -4 -7 -2 -12 4 -12 16 0
40 26 32 35 -4 4 -2 6 3 4 6 -1 23 1 38 6 21 6 25 10 15 16 -9 6 -4 9 15 9 19
0 26 4 21 12 -4 7 -3 8 4 4 18 -11 61 4 55 20 -3 10 2 14 18 14 13 0 33 7 43
15 10 8 23 12 28 9 5 -3 8 -2 7 3 -3 20 2 27 11 13 8 -13 10 -13 10 1 0 10 8
15 23 15 13 -1 21 4 19 12 -1 7 3 12 10 11 22 -2 58 13 52 22 -3 5 0 9 5 9 6
0 11 -5 11 -11 0 -5 5 -7 10 -4 6 4 8 11 5 16 -5 8 33 14 58 10 5 -1 6 3 2 9
-3 5 1 10 10 10 9 0 13 5 10 10 -3 6 -3 10 2 11 60 4 98 13 110 25 8 8 19 11
25 8 7 -5 8 -2 3 6 -6 10 -4 12 9 7 10 -4 15 -3 11 3 -3 5 3 14 14 19 27 15
44 14 36 -1 -4 -7 0 -5 9 6 8 10 25 20 38 21 38 4 39 5 33 15 -3 6 5 10 19 10
14 0 28 5 31 11 4 6 13 8 20 5 7 -2 16 2 19 11 4 9 14 13 26 10 12 -3 18 -1
14 5 -4 6 1 8 14 4 11 -4 23 -2 27 4 3 6 11 8 16 5 5 -4 12 0 15 8 3 9 16 14
29 12 14 -1 22 1 20 5 -3 5 2 11 11 14 8 3 12 2 9 -4 -3 -6 1 -7 9 -4 9 3 14
9 12 13 -3 4 7 6 22 6 15 -1 34 4 42 10 20 16 52 27 46 16 -3 -4 6 -6 19 -3
13 2 23 9 22 16 -1 6 12 11 30 11 18 0 38 6 45 13 6 6 19 12 28 12 9 0 22 6
29 13 11 10 13 10 7 0 -10 -18 4 -16 27 5 15 12 18 13 12 2 -8 -13 -6 -13 15
0 14 9 44 15 67 14 28 -1 40 3 37 11 -3 6 2 12 10 12 8 0 12 -5 9 -11 -4 -6 4
-2 17 9 14 12 20 14 15 5 -7 -13 -6 -13 7 -2 13 10 17 10 21 0 4 -8 6 -7 6 5
1 9 8 17 17 17 9 0 12 -5 8 -12 -6 -10 -4 -10 7 -2 8 5 21 10 29 9 8 0 18 3
21 8 9 12 61 15 83 4 12 -6 16 -6 12 1 -3 5 1 13 10 16 8 3 12 2 9 -4 -3 -5
11 -2 31 6 19 8 33 10 29 5 -4 -7 5 -9 27 -7 18 3 37 5 41 5 5 1 5 6 1 13 -5
7 -3 8 7 2 19 -12 52 -12 61 1 5 6 8 5 8 -4 0 -11 3 -11 15 -1 8 6 23 9 36 5
15 -5 19 -4 14 5 -6 9 -2 9 15 0 15 -8 20 -8 16 -1 -4 6 -2 11 3 11 6 0 11 -5
11 -11 0 -8 4 -8 15 1 16 13 67 21 60 9 -6 -9 42 -5 52 4 11 11 43 8 43 -4 0
-8 4 -8 13 -1 15 13 118 11 110 -2 -4 -5 -1 -6 4 -3 17 11 158 16 173 7 9 -5
20 -4 28 2 10 9 16 8 22 -1 5 -9 9 -10 14 -2 4 6 12 9 17 5 5 -3 6 -11 2 -17
-5 -9 -3 -9 8 0 8 6 28 9 44 6 17 -3 65 -6 108 -6 42 0 77 -5 77 -10 0 -5 12
-6 26 -3 17 5 23 3 19 -4 -4 -6 3 -10 17 -10 19 0 20 2 8 11 -12 8 -10 9 9 4
13 -4 29 -8 35 -9 6 -1 17 -6 25 -10 11 -7 12 -6 6 5 -7 12 -6 12 7 1 8 -7 22
-10 31 -6 8 3 18 0 22 -5 3 -6 10 -9 15 -6 5 3 11 1 15 -5 3 -5 18 -7 33 -4
21 4 24 3 12 -5 -11 -8 -7 -10 19 -6 32 4 68 -9 83 -30 5 -6 8 -6 8 2 0 6 8
10 18 8 9 -2 23 -4 30 -4 6 -1 12 -8 12 -16 0 -8 5 -15 11 -15 5 0 7 6 3 13
-6 10 -4 10 7 0 7 -7 26 -13 41 -13 17 0 31 -7 35 -16 3 -8 15 -14 27 -13 11
0 23 0 26 -1 3 -1 12 -3 20 -5 39 -8 46 -11 58 -25 8 -8 11 -9 7 -2 -3 6 -1
12 4 12 6 0 11 -7 11 -16 0 -8 4 -13 9 -9 5 3 12 1 16 -5 3 -5 12 -10 18 -10
7 0 6 4 -3 10 -10 6 -11 10 -2 10 6 0 20 -8 30 -18 10 -10 26 -18 35 -16 8 1
24 -5 34 -15 26 -22 66 -45 59 -32 -4 7 -1 8 8 5 9 -3 16 -10 16 -16 0 -5 5
-6 10 -3 6 3 10 2 10 -3 0 -16 96 -62 107 -51 7 7 15 5 26 -5 9 -9 20 -16 26
-16 6 0 10 -5 9 -12 -2 -7 4 -13 12 -13 25 -2 81 -31 73 -38 -3 -4 1 -7 11 -7
9 0 14 -5 11 -10 -4 -6 -3 -10 2 -9 23 4 53 -2 49 -10 -8 -13 18 -32 50 -35
14 -2 31 -10 36 -20 5 -9 14 -14 19 -10 5 3 8 0 7 -8 -2 -8 6 -12 22 -11 14 1
19 -1 12 -4 -17 -7 24 -43 50 -43 10 0 18 -6 18 -14 0 -8 10 -18 23 -21 12 -4
30 -17 40 -29 14 -15 17 -16 13 -4 -2 9 0 19 7 22 7 2 2 8 -10 11 -13 4 -20
12 -16 18 3 5 1 7 -4 4 -6 -4 -13 0 -17 8 -3 8 -15 15 -26 15 -12 0 -18 4 -15
10 3 5 -6 15 -20 22 -18 8 -22 14 -13 20 9 5 5 8 -12 8 -26 0 -67 37 -62 55 2
6 -2 4 -9 -2 -10 -10 -17 -9 -36 9 -13 12 -23 29 -23 37 0 13 -2 13 -9 2 -7
-10 -12 -8 -25 10 -9 13 -16 19 -16 14 0 -5 -6 -1 -13 10 -9 12 -19 15 -28 10
-8 -5 -11 -5 -7 -1 11 13 -15 33 -34 28 -10 -2 -18 1 -18 7 0 6 -8 11 -17 11
-15 0 -16 2 -3 10 12 8 11 10 -8 10 -12 0 -25 7 -28 15 -4 10 -13 13 -24 10
-10 -3 -22 0 -26 6 -4 7 -3 9 4 5 6 -3 14 -1 18 5 4 7 3 9 -3 6 -6 -4 -22 2
-36 13 -14 11 -29 20 -34 19 -20 -3 -44 2 -39 9 2 4 -5 9 -16 9 -11 1 -30 10
-41 20 -11 10 -17 12 -13 6 5 -9 2 -11 -8 -7 -9 3 -16 10 -16 15 0 5 -9 9 -21
9 -11 0 -18 4 -15 9 3 5 -1 12 -10 15 -10 4 -13 2 -9 -7 4 -6 1 -5 -7 4 -7 9
-21 15 -30 13 -9 -1 -19 5 -23 14 -5 14 -7 14 -15 2 -7 -11 -10 -12 -10 -2 0
7 -4 11 -9 8 -5 -3 -12 1 -15 10 -3 9 -13 14 -20 11 -8 -3 -17 2 -21 11 -5 14
-7 14 -16 2 -8 -11 -12 -12 -16 -2 -2 6 -9 10 -14 6 -5 -3 -9 0 -9 7 0 7 -3 9
-7 6 -3 -4 -12 -2 -20 4 -10 9 -13 8 -13 -2 -1 -9 -5 -8 -15 5 -8 11 -15 16
-15 12 0 -5 -6 -3 -14 3 -7 6 -20 9 -28 6 -8 -3 -20 1 -27 9 -6 7 -21 12 -31
9 -11 -3 -28 1 -37 8 -12 10 -14 10 -9 2 4 -7 3 -13 -3 -13 -5 0 -11 5 -13 10
-3 10 -31 16 -98 23 -14 1 -27 5 -30 9 -3 3 -19 9 -35 13 -23 5 -26 4 -15 -4
11 -8 6 -9 -20 -4 -19 3 -41 13 -49 20 -10 11 -16 11 -21 3 -9 -14 -21 -15
-29 -2 -3 5 -22 13 -41 16 -26 5 -31 4 -20 -3 13 -9 13 -11 -2 -11 -10 0 -18
7 -18 16 0 12 -4 14 -12 7 -14 -11 -48 -13 -48 -4 0 3 -19 5 -42 5 -24 -1 -47
1 -53 5 -5 3 -28 6 -50 7 -22 0 -49 4 -59 9 -14 6 -17 5 -11 -4 6 -10 3 -11
-15 -1 -12 6 -28 9 -35 6 -8 -3 -16 0 -19 7 -3 8 -7 9 -13 2 -11 -13 -36 -18
-28 -5 3 5 1 10 -4 10 -6 0 -11 -4 -11 -8 0 -4 -9 -8 -19 -8 -11 0 -17 4 -15
8 3 4 0 8 -5 8 -6 0 -11 -4 -11 -10 0 -5 -7 -10 -15 -10 -8 0 -15 5 -15 11 0
5 -4 8 -9 5 -5 -4 -20 -2 -34 3 -16 6 -28 6 -35 -1 -7 -7 -25 -7 -56 0 -25 5
-46 6 -46 2 0 -3 -7 -7 -15 -7 -8 0 -15 4 -15 9 0 4 -5 8 -11 8 -5 0 -8 -4 -5
-8 3 -5 -1 -9 -9 -9 -8 0 -12 4 -9 9 3 4 -7 3 -22 -2 -18 -7 -30 -7 -39 0 -9
8 -14 6 -19 -5z m1799 -405 c3 -5 2 -10 -4 -10 -5 0 -13 5 -16 10 -3 6 -2 10
4 10 5 0 13 -4 16 -10z m55 -32 c0 -5 -9 -4 -20 2 -11 6 -20 12 -20 14 0 2 9
2 20 -1 11 -3 20 -9 20 -15z m255 -138 c3 -5 1 -10 -4 -10 -6 0 -11 5 -11 10
0 6 2 10 4 10 3 0 8 -4 11 -10z m219 -135 c3 -8 1 -15 -4 -15 -6 0 -10 7 -10
15 0 8 2 15 4 15 2 0 6 -7 10 -15z m-5304 -495 c0 -5 -5 -10 -11 -10 -5 0 -7
5 -4 10 3 6 8 10 11 10 2 0 4 -4 4 -10z"/>
<path d="M5207 2746 c-5 -13 -15 -16 -38 -12 -17 2 -33 7 -36 10 -3 2 -15 1
-28 -4 -14 -5 -26 -5 -33 2 -6 6 -12 6 -17 -3 -6 -8 -4 -10 6 -4 12 7 12 5 1
-6 -8 -9 -15 -10 -20 -4 -6 9 -22 11 -47 5 -5 -1 -13 -2 -17 -1 -5 0 -8 -3 -8
-9 0 -5 -7 -10 -16 -10 -9 0 -12 5 -8 12 5 8 2 9 -10 5 -10 -4 -29 -7 -42 -7
-14 0 -23 -4 -20 -9 4 -5 -12 -8 -34 -6 -22 2 -40 -1 -40 -6 0 -5 -5 -9 -11
-9 -5 0 -7 6 -3 13 6 9 5 9 -8 0 -8 -7 -18 -10 -21 -6 -4 3 -7 2 -7 -4 0 -9
-14 -13 -54 -14 -11 0 -28 -5 -39 -10 -14 -8 -17 -8 -13 0 4 6 0 11 -9 11 -9
0 -14 -4 -11 -9 7 -11 -74 -24 -100 -15 -16 5 -17 4 -4 -6 13 -10 12 -11 -5
-7 -11 2 -27 -2 -34 -10 -9 -10 -17 -11 -23 -5 -12 12 -40 4 -32 -9 3 -5 -2
-6 -11 -2 -10 3 -21 0 -26 -8 -6 -10 -9 -10 -9 -2 0 9 -10 7 -31 -6 -17 -10
-40 -16 -51 -13 -13 3 -19 1 -15 -5 4 -6 -4 -13 -18 -15 -13 -3 -22 -1 -19 3
3 5 1 9 -5 9 -5 0 -15 -8 -20 -17 -6 -10 -11 -14 -11 -9 0 5 -7 3 -15 -4 -8
-7 -22 -9 -31 -6 -9 3 -27 -3 -41 -14 -15 -11 -34 -18 -44 -15 -9 3 -23 -1
-31 -8 -7 -8 -27 -13 -43 -11 -22 2 -26 1 -15 -6 13 -9 13 -10 0 -11 -8 -1
-23 0 -34 1 -11 1 -15 -3 -12 -9 4 -6 3 -11 -3 -11 -5 0 -12 6 -14 13 -4 10
-6 10 -6 0 -1 -7 -10 -13 -21 -13 -10 0 -28 -10 -39 -21 -12 -13 -26 -19 -35
-16 -9 4 -16 2 -16 -3 0 -6 -7 -10 -15 -10 -8 0 -15 -5 -15 -10 0 -6 -6 -10
-12 -9 -27 3 -49 -1 -44 -9 2 -4 -5 -9 -16 -9 -12 -1 -25 -8 -29 -15 -7 -10
-9 -10 -9 0 0 19 -17 14 -23 -8 -5 -18 -27 -26 -64 -21 -7 1 -13 -3 -13 -9 0
-5 -10 -10 -22 -10 -19 0 -20 -2 -8 -10 11 -7 7 -10 -17 -10 -25 0 -33 -4 -33
-17 0 -14 -2 -15 -9 -4 -6 9 -11 10 -15 2 -4 -6 -11 -9 -16 -6 -5 3 -14 -4
-20 -15 -9 -17 -14 -19 -25 -10 -11 9 -16 7 -25 -9 -6 -12 -17 -21 -25 -21 -7
0 -15 -5 -17 -11 -2 -5 -12 -12 -23 -14 -11 -2 -21 -4 -22 -5 -2 -2 -6 -3 -10
-4 -5 0 -18 -11 -30 -23 -13 -13 -28 -23 -35 -23 -6 0 -20 -8 -31 -17 -11 -10
-17 -12 -13 -6 5 9 2 11 -8 7 -9 -3 -14 -10 -11 -14 3 -5 -4 -6 -15 -3 -17 4
-19 2 -13 -13 6 -16 4 -17 -8 -7 -15 12 -43 3 -37 -13 1 -5 -7 -10 -19 -12
-14 -2 -23 -10 -23 -20 0 -13 -2 -14 -9 -4 -6 11 -13 8 -27 -11 -11 -13 -27
-23 -37 -21 -9 1 -20 -3 -24 -8 -3 -7 -1 -8 5 -4 7 4 12 4 12 -1 0 -4 -14 -16
-31 -25 -16 -10 -27 -13 -23 -7 4 8 0 7 -15 0 -11 -7 -21 -14 -21 -17 0 -3 5
-2 12 2 7 4 8 3 4 -4 -4 -6 -13 -9 -20 -6 -7 3 -19 -2 -26 -10 -7 -9 -16 -13
-21 -10 -5 3 -6 -2 -3 -10 4 -11 0 -13 -15 -9 -14 3 -23 0 -27 -11 -3 -9 -14
-16 -24 -16 -11 0 -22 -5 -26 -12 -5 -7 -3 -8 6 -3 8 5 11 3 9 -4 -3 -7 -20
-22 -39 -34 -33 -20 -34 -20 -20 -2 8 11 -4 3 -26 -18 -22 -20 -43 -34 -47
-31 -4 4 -7 2 -7 -4 0 -7 -9 -12 -20 -12 -14 0 -20 -6 -18 -17 2 -11 -6 -19
-22 -24 -14 -4 -20 -8 -15 -8 6 -1 2 -6 -8 -12 -9 -5 -22 -7 -27 -4 -6 3 -7
-1 -4 -9 5 -12 0 -16 -20 -16 -14 0 -25 -3 -24 -7 2 -5 -1 -8 -5 -8 -5 0 -13
-8 -18 -17 -6 -10 -19 -18 -29 -18 -13 0 -17 -5 -14 -14 3 -8 1 -17 -5 -21 -6
-3 -11 -1 -11 5 0 7 -5 6 -14 -2 -8 -7 -12 -16 -10 -20 2 -3 -12 -16 -31 -28
-19 -12 -32 -27 -29 -32 4 -7 2 -8 -5 -4 -12 8 -44 -18 -34 -28 4 -3 1 -6 -5
-6 -6 0 -9 -7 -5 -16 5 -13 7 -13 14 -2 7 10 9 9 9 -3 0 -10 11 -20 25 -23 16
-4 25 -13 23 -23 -2 -9 5 -17 17 -19 11 -2 27 -12 37 -23 16 -21 34 -29 23
-11 -3 6 -1 10 4 10 6 0 11 -7 11 -16 0 -10 5 -14 16 -10 8 3 12 2 9 -3 -3 -5
4 -12 15 -16 11 -3 20 -11 20 -17 0 -7 4 -7 13 1 10 8 18 6 33 -7 23 -22 54
-36 73 -33 7 1 10 -2 7 -7 -3 -6 2 -8 13 -5 10 3 22 0 25 -6 4 -6 16 -11 27
-11 10 0 19 -5 19 -11 0 -5 8 -9 18 -7 9 1 23 -1 30 -6 23 -14 142 -15 155 0
7 7 18 20 25 29 7 8 17 13 23 10 5 -4 9 1 9 10 0 9 5 13 10 10 6 -3 10 2 11
12 0 10 3 13 5 6 4 -8 16 -2 34 17 16 17 36 30 43 30 22 0 41 27 25 33 -7 3
-3 6 10 6 12 1 22 6 22 12 0 5 4 8 9 4 5 -3 16 4 24 15 7 11 17 17 22 12 4 -4
5 1 2 10 -6 18 24 35 43 23 6 -4 7 1 3 11 -4 12 -3 15 5 10 7 -4 12 -2 12 4 0
6 4 9 9 6 4 -3 17 4 27 17 19 21 19 21 -1 7 -18 -14 -19 -14 -7 1 7 10 21 15
31 12 10 -3 22 1 27 8 5 9 2 10 -10 6 -10 -4 -15 -3 -11 3 3 6 16 10 28 10 13
0 35 14 51 32 16 18 33 33 40 34 33 3 37 5 31 14 -4 6 1 7 11 3 14 -5 16 -3
11 11 -4 10 -2 16 6 15 20 -4 95 31 101 47 3 9 11 12 18 8 8 -5 9 -2 5 10 -6
14 -3 17 8 12 9 -3 24 3 35 14 22 22 35 26 24 8 -5 -9 -3 -9 9 1 9 7 14 17 11
22 -3 5 4 9 16 9 11 0 23 7 26 15 4 8 10 13 14 10 5 -3 15 2 23 10 9 8 20 15
25 15 5 0 15 7 22 15 7 8 16 12 21 9 5 -3 9 1 9 8 0 10 2 10 8 1 6 -10 14 -9
32 4 14 10 34 19 45 21 11 1 24 8 30 14 7 8 6 9 -4 3 -9 -5 -12 -4 -7 3 4 6
13 9 21 5 8 -3 15 0 15 6 0 6 13 11 29 11 18 0 35 8 44 20 8 11 28 21 50 23
21 2 41 8 45 12 4 5 -2 5 -13 1 -15 -5 -17 -4 -9 4 7 7 29 13 50 14 21 2 40 8
42 14 2 7 15 12 28 12 13 0 24 5 24 10 0 6 5 10 11 10 5 0 7 -5 3 -11 -3 -6 5
-3 20 6 14 10 26 14 26 10 0 -3 14 3 30 15 17 12 30 17 30 11 0 -6 4 -11 10
-11 5 0 9 6 7 13 -2 12 2 12 33 5 8 -1 14 2 13 9 -2 7 6 10 17 8 11 -2 20 0
20 5 0 5 9 7 20 5 11 -2 22 0 25 5 3 5 12 7 19 4 7 -3 20 2 29 10 17 18 42 22
32 6 -3 -5 -1 -10 4 -10 6 0 11 5 11 11 0 6 7 9 15 5 8 -3 15 -1 15 4 0 5 7 6
17 3 11 -4 14 -3 9 5 -4 7 -3 12 3 12 5 0 11 -6 14 -12 3 -10 8 -10 18 1 12
12 12 13 0 6 -10 -6 -12 -4 -7 4 5 7 15 10 23 7 8 -3 22 -2 32 4 10 5 35 10
55 12 20 1 36 5 36 8 0 3 11 6 25 8 14 1 37 3 53 5 15 1 37 8 50 15 12 7 22
10 22 6 0 -3 7 -1 15 6 11 9 18 10 29 1 11 -9 15 -8 20 4 3 10 11 13 18 9 21
-13 50 -12 55 3 3 7 9 13 15 13 5 0 6 -4 3 -10 -10 -16 7 -12 28 8 11 9 17 11
13 5 -4 -7 -2 -13 3 -13 6 0 11 4 11 9 0 5 15 8 33 6 20 -3 27 -1 18 4 -9 6
-1 10 27 13 26 2 38 0 34 -7 -4 -7 -1 -7 9 0 8 6 33 10 56 10 24 0 43 4 43 9
0 6 5 5 11 -1 13 -13 59 -5 59 11 0 7 4 6 9 -2 10 -17 21 -17 30 -3 10 15 101
21 101 7 0 -6 5 -4 10 4 5 8 10 11 10 6 0 -5 7 -3 15 4 8 7 15 8 15 3 0 -10
55 -11 65 -1 3 3 24 0 47 -6 32 -9 42 -8 45 1 3 9 10 10 24 3 14 -8 19 -7 19
2 0 10 2 10 9 -1 6 -9 11 -10 15 -2 4 6 13 11 19 11 7 0 6 -4 -3 -10 -9 -6
-10 -10 -3 -10 6 0 14 4 18 10 3 5 15 6 28 1 12 -4 40 -7 62 -5 23 2 42 -1 47
-9 6 -9 8 -9 8 0 0 8 11 10 33 6 44 -7 107 -13 140 -13 15 0 27 -4 27 -8 0
-10 51 -9 68 2 7 4 15 1 18 -8 3 -9 17 -16 31 -16 15 0 22 4 17 11 -4 7 -1 10
7 7 8 -3 13 -12 11 -19 -3 -11 -1 -12 9 -1 18 17 48 15 56 -4 5 -13 7 -13 14
-2 7 11 11 10 19 -2 6 -10 10 -11 10 -2 0 6 7 12 16 12 8 0 13 -4 9 -9 -3 -6
4 -8 17 -6 12 3 32 -2 44 -10 16 -10 24 -11 33 -2 8 8 14 8 24 -2 10 -10 8
-11 -8 -5 -11 4 -17 4 -13 0 6 -7 23 -10 128 -18 19 -2 38 -8 42 -15 5 -6 17
-9 28 -6 11 3 26 0 33 -6 8 -6 17 -8 20 -5 4 4 18 -1 33 -11 15 -9 23 -12 20
-6 -4 6 -3 11 3 11 5 0 11 -5 13 -11 2 -6 15 -12 30 -12 14 -1 24 -6 20 -11
-3 -5 3 -6 13 -3 9 4 24 2 33 -5 8 -7 17 -12 19 -10 8 6 24 1 19 -6 -3 -5 1
-9 9 -9 8 0 11 5 8 11 -4 6 2 4 13 -5 10 -8 26 -15 34 -14 8 0 17 -2 20 -5 14
-15 62 -41 54 -29 -4 8 4 4 19 -8 16 -12 35 -19 47 -16 16 4 19 2 14 -11 -4
-12 -2 -15 9 -10 8 3 18 1 21 -5 4 -6 14 -7 23 -4 10 4 14 2 10 -4 -4 -6 1
-17 10 -24 15 -12 16 -12 10 6 -6 17 -5 17 11 -3 13 -16 23 -21 37 -16 15 6
17 4 12 -11 -7 -16 -5 -16 10 -4 14 12 16 12 11 -1 -7 -20 48 -56 56 -37 2 7
5 5 5 -4 1 -18 27 -34 50 -30 7 1 10 -3 6 -8 -4 -7 6 -14 24 -17 17 -4 28 -10
25 -15 -3 -5 0 -9 5 -9 6 0 11 -7 11 -15 0 -8 9 -15 19 -15 10 0 22 -7 25 -16
4 -9 9 -14 12 -11 3 3 16 -5 29 -19 17 -19 24 -21 28 -10 7 17 -21 59 -34 51
-5 -4 -13 4 -18 17 -6 13 -10 19 -10 15 -1 -4 -7 -2 -15 5 -7 7 -11 19 -9 25
3 8 -3 13 -17 13 -16 0 -20 4 -16 16 4 10 1 14 -6 11 -11 -3 -48 28 -48 41 0
2 8 -2 18 -9 15 -13 16 -12 4 2 -7 9 -26 22 -42 29 -20 8 -27 17 -23 28 4 9 2
13 -4 9 -12 -7 -56 27 -47 36 9 8 -32 27 -41 19 -5 -4 -6 -2 -3 3 3 6 0 16 -8
23 -11 10 -14 10 -14 0 0 -9 -3 -9 -9 2 -6 8 -7 18 -5 22 3 5 0 7 -8 6 -7 -2
-12 3 -10 10 1 6 -1 11 -5 11 -5 -1 -17 -1 -28 0 -17 1 -18 3 -5 11 12 8 11
10 -7 10 -13 0 -23 5 -23 10 0 6 -9 10 -19 10 -11 0 -29 12 -41 28 -12 15 -18
20 -14 12 7 -13 5 -13 -9 -1 -9 7 -14 17 -12 22 3 4 -3 6 -15 4 -11 -2 -23 1
-26 7 -5 7 -2 8 7 4 8 -4 3 1 -11 12 -18 15 -27 17 -32 9 -7 -11 -9 -10 -12
12 -2 16 -50 48 -65 43 -8 -2 -23 6 -33 19 -11 13 -16 17 -12 9 5 -10 0 -9
-14 4 -12 11 -22 15 -22 11 0 -5 -6 -1 -13 9 -7 9 -17 17 -22 16 -23 -5 -34 1
-40 21 -5 15 -10 18 -15 10 -5 -9 -12 -8 -25 6 -10 10 -20 17 -22 16 -8 -4
-43 10 -43 18 0 5 -7 9 -15 9 -8 0 -15 4 -15 9 0 6 -9 8 -19 6 -14 -2 -18 1
-15 10 4 10 0 13 -15 10 -11 -2 -23 0 -26 5 -3 5 -12 7 -19 4 -8 -3 -17 0 -22
7 -4 8 -3 10 4 5 7 -4 12 -2 12 4 0 8 -9 10 -22 7 -14 -4 -32 1 -47 12 -13 10
-32 16 -41 14 -9 -2 -22 2 -29 11 -7 8 -19 12 -27 9 -8 -3 -14 -1 -14 5 0 15
-32 24 -41 11 -4 -8 -13 -5 -27 9 -14 14 -22 17 -26 9 -3 -9 -5 -9 -5 1 -1 8
-9 10 -25 6 -13 -3 -27 -1 -31 5 -3 6 -11 9 -16 5 -6 -3 -20 2 -31 13 -14 11
-18 13 -13 3 7 -12 4 -11 -17 2 -20 13 -28 14 -31 5 -3 -7 -6 -5 -6 6 -1 9 -6
17 -12 17 -5 0 -8 -4 -5 -8 2 -4 -4 -8 -14 -8 -10 0 -16 5 -13 10 4 5 -1 7
-11 3 -9 -4 -28 0 -42 9 -15 10 -24 12 -24 5 0 -6 -7 -11 -15 -11 -8 0 -15 5
-15 10 0 6 -12 10 -26 10 -14 0 -35 5 -46 11 -16 9 -19 8 -13 -1 6 -10 -1 -11
-31 -6 -21 4 -40 12 -42 17 -2 5 -8 9 -13 9 -6 0 -7 -4 -4 -10 3 -5 2 -10 -4
-10 -5 0 -12 4 -15 9 -3 4 -24 6 -46 4 -26 -3 -40 0 -40 8 0 6 -7 9 -15 5 -8
-3 -15 -1 -15 5 0 6 -6 6 -18 0 -10 -6 -24 -6 -32 -1 -8 5 -19 6 -24 3 -14 -9
-60 -8 -76 2 -9 6 -11 4 -5 -6 8 -12 6 -12 -8 -1 -9 8 -20 11 -26 8 -5 -3 -12
0 -14 6 -4 10 -6 10 -6 1 -1 -15 -31 -18 -31 -3 0 7 -7 7 -21 -1 -15 -8 -19
-8 -15 0 9 14 -9 14 -36 0 -16 -9 -23 -8 -29 2 -7 12 -9 12 -9 0 0 -11 -3 -11
-17 0 -13 11 -17 11 -20 2 -5 -15 -33 -17 -33 -3 0 6 -7 10 -16 10 -8 0 -13
-3 -11 -8 3 -4 -14 -7 -38 -8 -28 0 -42 4 -38 10 3 6 0 5 -8 -1 -17 -16 -46
-17 -51 -1 -3 7 -7 5 -11 -6z m2563 -976 c6 -11 8 -20 6 -20 -3 0 -10 9 -16
20 -6 11 -8 20 -6 20 3 0 10 -9 16 -20z"/>
<path d="M7409 2325 c-7 -29 6 -44 41 -44 8 0 5 4 -7 9 -15 6 -21 15 -17 25 3
8 1 15 -5 15 -6 0 -12 -2 -12 -5z"/>
<path d="M7473 2260 c5 -29 26 -50 24 -23 0 11 -7 25 -14 32 -10 9 -12 8 -10
-9z"/>
<path d="M8020 1899 c0 -5 5 -7 10 -4 6 3 10 8 10 11 0 2 -4 4 -10 4 -5 0 -10
-5 -10 -11z"/>
<path d="M7796 1721 c-3 -5 1 -11 9 -15 8 -3 15 -1 15 4 0 13 -18 22 -24 11z"/>
<path d="M5758 1513 c-27 -7 -22 -23 7 -23 16 0 25 6 25 15 0 15 -2 16 -32 8z"/>
<path d="M7560 1279 c0 -5 5 -7 10 -4 6 3 10 8 10 11 0 2 -4 4 -10 4 -5 0 -10
-5 -10 -11z"/>
<path d="M7410 1149 c0 -5 5 -7 10 -4 6 3 10 8 10 11 0 2 -4 4 -10 4 -5 0 -10
-5 -10 -11z"/>
<path d="M3365 1010 c-3 -6 1 -7 9 -4 18 7 21 14 7 14 -6 0 -13 -4 -16 -10z"/>
<path d="M4748 513 c7 -3 16 -2 19 1 4 3 -2 6 -13 5 -11 0 -14 -3 -6 -6z"/>
</g>
</svg>
